<svg version="1.1" id="Layer_1" xmlns="http://www.w3.org/2000/svg" xmlns:xlink="http://www.w3.org/1999/xlink" x="0px" y="0px"
	 width="100%" viewBox="0 0 490 132" enable-background="new 0 0 490 132" xml:space="preserve">
<path fill="#010000" opacity="1.000000" stroke="none" 
	d="
M318.000000,133.000000 
	C213.333359,133.000000 109.166702,132.978394 5.000200,133.095444 
	C1.576348,133.099289 0.889169,132.425858 0.901687,128.999725 
	C1.053315,87.500305 1.039913,46.000000 0.916300,4.500382 
	C0.907415,1.517416 1.517730,0.917290 4.499911,0.918985 
	C165.499817,1.010477 326.499786,1.010461 487.499664,0.919076 
	C490.480713,0.917384 491.092621,1.515852 491.083771,4.499968 
	C490.960175,46.166256 490.960266,87.833138 491.083649,129.499435 
	C491.092499,132.481888 490.483765,133.088852 487.500153,133.082886 
	C431.166931,132.970352 374.833435,133.000000 318.000000,133.000000 
z"/>
<path fill="#F59605" opacity="1.000000" stroke="none" 
	d="
M287.053406,72.000137 
	C287.052704,79.658257 286.956146,86.818192 287.087982,93.973915 
	C287.164307,98.117638 285.653290,100.025703 281.249207,100.003288 
	C257.944122,99.884689 234.637772,99.875626 211.332809,100.002686 
	C206.707703,100.027901 205.121948,97.986351 205.148819,93.674469 
	C205.229752,80.690384 205.214294,67.705330 205.158615,54.720982 
	C205.140915,50.593643 206.886917,48.618458 211.147278,48.630196 
	C234.452774,48.694382 257.758759,48.721073 281.063965,48.622414 
	C285.672424,48.602905 287.256226,50.643970 287.098938,55.021454 
	C286.901825,60.507828 287.052704,66.006706 287.053406,72.000137 
z"/>
<path fill="#EEEEEE" opacity="1.000000" stroke="none" 
	d="
M205.173279,31.942734 
	C205.173141,26.472017 205.330429,21.483997 205.112869,16.512383 
	C204.985748,13.607753 206.010345,12.732499 208.808090,12.918246 
	C212.280716,13.148799 215.793015,12.816616 219.260162,13.086806 
	C224.439148,13.490399 227.392181,16.917070 227.335419,22.010048 
	C227.281815,26.820875 224.359131,30.093351 219.519760,30.754286 
	C219.191391,30.799133 218.857437,30.801811 218.526627,30.830273 
	C211.566467,31.429087 211.525009,31.427996 211.314117,38.309792 
	C211.254364,40.260113 211.389908,41.842461 208.558105,41.808437 
	C206.001511,41.777718 204.886124,41.079788 205.133804,38.406349 
	C205.316833,36.430740 205.172043,34.424767 205.173279,31.942734 
z"/>
<path fill="#EAEAEA" opacity="1.000000" stroke="none" 
	d="
M274.135864,32.980007 
	C274.134552,35.433041 274.050232,37.428684 274.158051,39.413895 
	C274.277405,41.612381 272.971771,41.755753 271.302704,41.761219 
	C269.662140,41.766586 268.307709,41.691193 268.322754,39.507225 
	C268.360443,34.032154 268.354614,28.556496 268.317505,23.081404 
	C268.308289,21.720682 268.709076,20.511002 270.191803,20.924536 
	C273.681091,21.897684 276.925385,20.317839 280.270538,20.310835 
	C284.467010,20.302050 287.218018,22.468409 287.412994,26.928095 
	C287.579529,30.737362 287.455322,34.558479 287.553009,38.371967 
	C287.605713,40.430351 287.402527,41.818470 284.694580,41.824146 
	C282.103119,41.829578 281.644867,40.707897 281.753326,38.513538 
	C281.884247,35.865410 281.834076,33.204258 281.763000,30.551405 
	C281.696564,28.071821 281.891785,25.031528 278.400421,24.975124 
	C274.983978,24.919933 274.161499,27.562880 274.221100,30.529325 
	C274.234406,31.191395 274.167480,31.855076 274.135864,32.980007 
z"/>
<path fill="#ECECEC" opacity="1.000000" stroke="none" 
	d="
M237.338348,41.953590 
	C229.946396,39.866444 226.907379,35.083202 228.406265,28.512297 
	C229.656342,23.032146 234.844208,19.519316 240.420303,20.377295 
	C246.133011,21.256294 249.945709,25.816517 249.749939,31.536146 
	C249.529510,37.976501 245.115265,41.819111 237.338348,41.953590 
z"/>
<path fill="#E9E9E9" opacity="1.000000" stroke="none" 
	d="
M264.738708,24.309681 
	C264.238068,25.427595 263.829498,26.205894 262.792877,25.911837 
	C258.815460,24.783566 258.239075,27.570208 257.981873,30.301580 
	C257.718933,33.093639 257.731506,35.932049 257.881042,38.736439 
	C258.013855,41.227337 256.930237,41.794044 254.651947,41.800354 
	C252.283020,41.806911 251.950485,40.652454 251.977692,38.718533 
	C252.047562,33.752659 252.000214,28.785135 252.000504,23.818272 
	C252.000519,23.487190 251.993469,23.155338 252.012405,22.825148 
	C252.191803,19.697718 255.447556,20.462982 255.947037,21.018488 
	C258.468872,23.823153 264.613159,15.310030 264.738708,24.309681 
z"/>
<path fill="#EAEAEA" opacity="1.000000" stroke="none" 
	d="
M226.326996,118.211319 
	C223.868866,115.444603 224.885529,113.048439 226.632935,110.947830 
	C228.407928,108.814049 231.086716,109.735474 233.090347,110.191566 
	C235.925461,110.836945 236.300964,113.575432 236.000046,116.597687 
	C235.505264,117.333336 235.072250,117.506622 234.226868,117.359993 
	C233.547424,116.881210 233.287704,116.474220 233.078949,116.030228 
	C232.542908,114.890076 232.349380,113.162041 230.754440,113.279823 
	C229.071930,113.404076 229.377747,115.204857 229.025925,116.383774 
	C228.886292,116.851700 228.740707,117.314468 228.278091,118.020317 
	C227.577728,118.481468 227.104034,118.522705 226.326996,118.211319 
z"/>
<path fill="#DEDEDE" opacity="1.000000" stroke="none" 
	d="
M209.546585,117.928757 
	C208.771393,117.289421 208.383850,116.621330 207.937210,115.851349 
	C206.243347,117.378693 208.142654,119.662125 205.691986,121.463318 
	C204.554825,117.745667 204.973862,114.221458 205.204315,110.857185 
	C205.331207,109.004707 207.222336,109.217705 208.121460,110.369690 
	C209.000732,111.496269 209.298340,113.076828 209.889404,114.824776 
	C210.833054,116.092072 210.767975,116.995087 209.546585,117.928757 
z"/>
<path fill="#E8E8E8" opacity="1.000000" stroke="none" 
	d="
M264.259827,115.996033 
	C263.965179,117.817101 263.888641,119.168289 266.200195,119.169228 
	C267.701416,119.169838 269.466858,118.416054 271.122620,120.364891 
	C268.288422,121.415451 264.607117,122.108040 263.397095,120.430832 
	C261.462158,117.748726 261.821838,113.425102 263.104919,110.529877 
	C264.072510,108.346512 267.637451,109.886261 270.309662,109.832329 
	C269.210663,113.069878 265.210663,109.740685 264.815491,113.657394 
	C264.935059,114.699829 264.804199,115.250504 264.259827,115.996033 
z"/>
<path fill="#C7C7C7" opacity="1.000000" stroke="none" 
	d="
M209.167114,118.319290 
	C209.955826,117.422791 209.894775,116.605118 209.899078,115.495529 
	C210.448349,115.978279 211.078415,116.153801 212.087952,115.228912 
	C213.417206,114.675385 214.038422,113.518967 215.706268,113.683098 
	C216.302734,114.362068 216.404465,114.786850 216.367645,115.518295 
	C216.054810,116.069473 215.880493,116.313980 215.351913,116.280334 
	C213.004318,116.193779 213.336197,118.036392 212.758102,119.207474 
	C210.981430,122.806580 210.069107,120.887810 209.167114,118.319290 
z"/>
<path fill="#D9D9D9" opacity="1.000000" stroke="none" 
	d="
M250.653107,110.285385 
	C255.414230,111.830582 254.701187,115.173439 253.387573,118.848434 
	C252.659561,119.281586 252.219666,119.244812 251.595688,118.635902 
	C250.670151,116.370804 250.620682,114.212120 249.675446,111.929398 
	C249.661835,111.076889 249.902237,110.703201 250.653107,110.285385 
z"/>
<path fill="#FFFFFF" opacity="1.000000" stroke="none" 
	d="
M250.521667,109.968811 
	C250.689255,110.386665 250.412582,110.659248 249.887329,111.093475 
	C248.001709,113.404221 248.432144,116.088509 247.607346,118.818085 
	C246.977448,119.764572 246.363525,120.155846 245.243042,120.190979 
	C244.817322,118.279205 244.973114,116.447723 244.641495,114.709221 
	C243.729156,109.926636 246.169815,109.116463 250.521667,109.968811 
z"/>
<path fill="#FFFFFF" opacity="1.000000" stroke="none" 
	d="
M281.205566,120.547798 
	C277.107910,117.467201 279.848358,113.645882 280.093597,109.963509 
	C281.951752,112.390221 281.026794,115.156265 281.278625,118.198212 
	C281.491547,119.139809 281.560394,119.667931 281.205566,120.547798 
z"/>
<path fill="#E2E2E2" opacity="1.000000" stroke="none" 
	d="
M226.061630,118.319809 
	C226.451447,117.992096 226.866013,117.996849 227.591370,118.011276 
	C229.612564,117.088837 231.275208,117.816994 233.518478,118.626900 
	C231.215805,122.712448 228.598373,121.651215 226.061630,118.319809 
z"/>
<path fill="#BCBCBC" opacity="1.000000" stroke="none" 
	d="
M244.901123,120.412315 
	C245.368103,119.796677 245.852280,119.525078 246.594818,119.134628 
	C248.037689,117.889587 249.482895,117.504074 251.445023,117.623405 
	C252.052567,118.081177 252.288162,118.445915 252.825806,118.941910 
	C250.923798,122.231300 247.870834,121.248940 244.901123,120.412315 
z"/>
<path fill="#E9E9E9" opacity="1.000000" stroke="none" 
	d="
M216.397491,113.679230 
	C215.224670,114.193848 214.248322,114.450409 212.798706,114.814781 
	C212.609985,113.978424 212.849014,113.017418 213.190338,112.094254 
	C213.638931,110.880974 214.008423,109.245186 215.754593,109.759583 
	C217.855850,110.378586 216.884644,112.057304 216.397491,113.679230 
z"/>
<path fill="#DEDEDE" opacity="1.000000" stroke="none" 
	d="
M264.534485,116.183167 
	C264.181854,115.660217 264.256409,115.071175 264.556915,114.283997 
	C266.521149,114.534470 268.648346,113.357895 270.304382,115.247276 
	C268.500732,116.684265 266.632050,115.756210 264.534485,116.183167 
z"/>
<path fill="#C7C7C7" opacity="1.000000" stroke="none" 
	d="
M281.379639,120.996307 
	C281.005096,120.375244 281.047821,119.874451 281.166443,119.004417 
	C282.992188,119.557854 285.207886,118.286530 287.106903,119.964073 
	C285.608337,122.029816 283.494629,120.765404 281.379639,120.996307 
z"/>
<path fill="#C7C7C7" opacity="1.000000" stroke="none" 
	d="
M214.933533,120.012680 
	C214.921524,118.666100 215.352417,117.957794 216.333450,118.304977 
	C216.699081,118.434380 217.036377,119.405357 216.946152,119.914543 
	C216.703171,121.285660 215.913681,121.338249 214.933533,120.012680 
z"/>
<path fill="#E2E2E2" opacity="1.000000" stroke="none" 
	d="
M233.875656,117.146042 
	C234.495193,116.994743 234.889786,116.993111 235.580353,116.992905 
	C236.006683,117.962631 235.489655,118.526985 234.384735,118.998596 
	C233.957352,118.957146 233.826492,118.826637 233.499435,118.500313 
	C233.342987,117.942032 233.462646,117.607079 233.875656,117.146042 
z"/>
<path fill="#C7C7C7" opacity="1.000000" stroke="none" 
	d="
M215.902954,115.742126 
	C217.174881,116.553642 217.280289,117.429543 216.253632,118.031883 
	C215.206665,118.646149 214.962418,117.795303 214.950592,116.468948 
	C215.190689,115.887886 215.383743,115.773590 215.902954,115.742126 
z"/>
<path fill="#120803" opacity="1.000000" stroke="none" 
	d="
M264.030579,88.700378 
	C263.334595,88.747543 262.969086,88.711044 262.330933,88.721420 
	C261.460114,88.877274 260.905609,88.782631 260.204285,88.208359 
	C259.998840,88.002037 260.000000,88.000000 259.999146,88.000320 
	C258.932312,78.304413 259.731537,68.581711 259.847290,58.461716 
	C260.109894,58.050995 260.552734,57.874950 260.773071,57.784264 
	C262.062805,57.432968 263.148773,57.527931 264.630249,57.619270 
	C267.068787,60.356243 264.956818,63.528652 266.236908,66.657913 
	C271.735748,65.422905 277.399841,64.616295 280.598480,71.053543 
	C283.273895,76.437851 282.014374,82.766899 277.247101,87.713837 
	C276.788361,88.220711 276.544769,88.459015 276.014099,88.671860 
	C275.757477,88.677864 276.002014,88.964539 275.888000,88.814392 
	C273.523743,90.238480 271.014923,89.246216 268.367249,88.988297 
	C268.114471,88.591583 267.905212,88.417198 267.769440,88.406273 
	C266.550171,88.577980 265.405609,87.858185 264.030579,88.700378 
z"/>
<path fill="#170C04" opacity="1.000000" stroke="none" 
	d="
M232.719437,79.041893 
	C232.716125,81.674774 232.645767,83.842339 232.728683,86.004028 
	C232.819214,88.364372 231.419983,88.642838 229.528793,88.716393 
	C227.323853,88.802147 226.626373,87.903732 226.693665,85.763924 
	C226.808701,82.104988 226.727859,78.437340 226.639221,74.775536 
	C226.587662,72.645309 226.019241,70.677353 223.435837,70.490623 
	C220.707962,70.293465 218.797104,71.666023 218.540039,74.377274 
	C218.195450,78.011841 218.190796,81.687889 218.217041,85.344864 
	C218.232620,87.515305 217.805222,88.755569 215.219330,88.733589 
	C212.734131,88.712456 212.121567,87.661491 212.145111,85.398315 
	C212.229950,77.238853 212.236099,69.077255 212.138535,60.918053 
	C212.110168,58.547855 212.953186,57.728100 215.323135,57.684967 
	C218.009033,57.636086 218.299606,59.057262 218.200775,61.142529 
	C218.115112,62.949860 218.182953,64.764465 218.182953,66.847183 
	C219.243179,66.661530 219.867584,66.581871 220.477829,66.440880 
	C229.269394,64.409584 232.560257,66.996422 232.716980,76.075935 
	C232.731354,76.908394 232.719574,77.741287 232.719437,79.041893 
z"/>
<path fill="#150A04" opacity="1.000000" stroke="none" 
	d="
M251.177628,88.160858 
	C249.396942,86.230392 248.333984,88.311119 247.106598,88.648849 
	C240.538681,90.456078 236.225128,87.462646 236.034241,80.655357 
	C235.927048,76.832199 236.136032,72.999184 235.994324,69.178337 
	C235.901047,66.663025 237.055267,66.102753 239.300385,66.105759 
	C241.610275,66.108849 242.077316,67.234642 242.044098,69.210945 
	C241.985397,72.702774 242.087143,76.197067 242.098358,79.690399 
	C242.105896,82.040283 242.579422,84.239655 245.385773,84.392471 
	C248.350540,84.553917 250.073624,82.798340 250.230606,79.861565 
	C250.408005,76.543121 250.391693,73.210808 250.355209,69.885674 
	C250.330917,67.673485 250.493759,66.025589 253.484802,66.087852 
	C256.179443,66.143944 256.365234,67.574570 256.344635,69.614014 
	C256.292480,74.770714 256.251740,79.930092 256.366760,85.084816 
	C256.421051,87.519447 255.804199,88.992027 252.643036,88.659325 
	C251.871002,88.740074 251.578568,88.629791 251.177628,88.160858 
z"/>
<path fill="#BB781C" opacity="1.000000" stroke="none" 
	d="
M259.781738,58.309715 
	C260.098053,67.722595 260.086212,77.394188 260.036316,87.533218 
	C258.064270,85.477325 259.096405,82.556755 259.112732,79.860191 
	C259.155762,72.764183 258.504944,65.649734 259.781738,58.309715 
z"/>
<path fill="#BB781C" opacity="1.000000" stroke="none" 
	d="
M268.306274,88.943329 
	C270.385284,88.629402 272.656128,88.667229 275.350464,88.684654 
	C273.532410,90.993591 271.004028,90.015053 268.306274,88.943329 
z"/>
<path fill="#BB781C" opacity="1.000000" stroke="none" 
	d="
M264.194977,88.866043 
	C264.797150,88.145164 265.698425,86.654099 267.439087,88.182571 
	C266.652405,88.579575 265.671143,88.763809 264.194977,88.866043 
z"/>
<path fill="#BB781C" opacity="1.000000" stroke="none" 
	d="
M260.010254,88.298729 
	C260.536774,88.146248 261.074738,88.290459 261.835449,88.601471 
	C261.277740,89.908440 260.600616,89.830284 260.010254,88.298729 
z"/>
<path fill="#BB781C" opacity="1.000000" stroke="none" 
	d="
M264.794037,57.483318 
	C263.948486,57.757702 262.867432,57.819386 261.389923,57.787323 
	C262.080597,56.699524 263.311310,56.915298 264.794037,57.483318 
z"/>
<path fill="#BB781C" opacity="1.000000" stroke="none" 
	d="
M276.026489,88.698166 
	C276.001801,88.452545 276.246094,88.227234 276.748047,87.978584 
	C276.768982,88.209656 276.532257,88.464066 276.026489,88.698166 
z"/>
<path fill="#965C0F" opacity="1.000000" stroke="none" 
	d="
M251.090683,88.260468 
	C251.321991,88.033600 251.624283,88.138901 252.069702,88.484238 
	C251.885025,88.615608 251.534622,88.571732 251.090683,88.260468 
z"/>
<path fill="#1A1A1A" opacity="1.000000" stroke="none" 
	d="
M211.291672,24.584314 
	C211.200333,17.887154 212.309219,16.852266 217.652679,18.141020 
	C219.594589,18.609375 220.978073,19.635691 221.065460,21.789110 
	C221.153229,23.951981 219.939728,25.302591 217.918869,25.560980 
	C215.737885,25.839838 213.403152,26.836651 211.291672,24.584314 
z"/>
<path fill="#111111" opacity="1.000000" stroke="none" 
	d="
M234.130829,29.469025 
	C235.020035,26.657766 236.472549,24.956741 239.242126,25.126047 
	C241.503571,25.264290 242.832687,26.667898 243.417358,28.799952 
	C244.165558,31.528227 243.968033,34.099487 241.865479,36.201233 
	C240.559982,37.506207 238.885620,37.731686 237.245544,37.013123 
	C234.073761,35.623489 233.855682,32.815918 234.130829,29.469025 
z"/>
<path fill="#0E0E0E" opacity="1.000000" stroke="none" 
	d="
M234.070953,116.601151 
	C233.882370,117.265343 233.664154,117.534309 233.374588,118.053894 
	C231.727432,119.314278 230.107712,119.189812 228.183960,118.256393 
	C227.788376,117.550430 227.639771,117.085243 227.566635,116.608490 
	C227.190094,114.154503 227.547073,111.634216 230.322540,111.304947 
	C233.609161,110.915047 234.142410,113.532494 234.070953,116.601151 
z"/>
<path fill="#111111" opacity="1.000000" stroke="none" 
	d="
M251.864410,117.340965 
	C250.606079,118.755112 249.218994,119.250389 247.234436,119.047302 
	C247.544083,116.446159 244.161377,112.837158 249.232666,111.268333 
	C252.038696,112.504868 252.313477,114.600548 251.864410,117.340965 
z"/>
<path fill="#E9910B" opacity="1.000000" stroke="none" 
	d="
M271.782532,84.193321 
	C266.142090,82.957901 263.846405,75.816353 267.406006,71.895660 
	C269.543854,69.540962 272.789612,69.783112 274.607452,72.432915 
	C276.986572,75.900909 275.845642,81.405472 271.782532,84.193321 
z"/>
</svg>